# xmcd
#
# Track frame offsets:
#	150
#	15747
#	27620
#	42455
#	58630
#	75750
#	92232
#	107022
#	123217
#	138732
#	154035
#	169355
#
# Disc length: 2478 seconds
#
# Revision: 1
# Processed by: cddbd v1.5.2PL0 Copyright (c) Steve Scherf et al.
# Submitted via: audiograbber 1.83.01
#
DISCID=9a09ac0c
DTITLE=White Stars - Du bist wie die Sonne
DYEAR=1993
DGENRE=Pop
TTITLE0=Du gibst mir den Mut zum Lieben
TTITLE1=Everybody ole
TTITLE2=Du bist wie die Sonne für mich
TTITLE3=Weil es einmal Liebe war
TTITLE4=Dreizehn Rosen
TTITLE5=Spiel nicht mit der Liebe
TTITLE6=Aber diesmal mit Herz
TTITLE7=Du brauchst nicht weinen, wenn er geht
TTITLE8=Seit wann ist Liebe eine Sünde
TTITLE9=Ich hab' Sehnsucht nach Mykonos
TTITLE10=Das mit dir ist heller Wahnsinn
TTITLE11=Diese Rose schenk ich dir
EXTD=
EXTT0=
EXTT1=
EXTT2=
EXTT3=
EXTT4=
EXTT5=
EXTT6=
EXTT7=
EXTT8=
EXTT9=
EXTT10=
EXTT11=
PLAYORDER=
